<svg xmlns="http://www.w3.org/2000/svg" id="ICONS" x="0" y="0" version="1.1" viewBox="0 0 332.2 214" xml:space="preserve"><style>.st0,.st2{fill:none;stroke:#132144;stroke-width:7;stroke-linecap:round;stroke-linejoin:round}.st2{fill:#fff}</style><path d="M213.4 23.3c-5.8-7.5-14.6-12.1-24.1-12.5C144.7 8.9 66.1 5.4 28.1 3.5 15.8 2.9 5.3 12.3 4.6 24.6c-2.8 53.9.6 116.1-.4 134.9-1 17.6 18.8 25.1 35 27.4" class="st0"/><path fill="#377dff" stroke="#377dff" stroke-linecap="round" stroke-linejoin="round" stroke-width="7" d="M223.2 22.7c12.2-.8 22.8 8.5 23.6 20.7 3.6 53.7 1.1 116 2.5 134.9 1.6 21.5-28.5 28.5-44.8 28.9-46.1 1.2-92.3.2-138.4-3-8.8-.6-19-2.1-23.5-9.7-2.3-3.8-2.5-8.4-2.7-12.8-1.2-24.3-5.4-79.1-8.2-114.7-1.3-17.8 12-33.2 29.8-34.5h.5c44.6-2.7 123.1-7.3 161.2-9.8z"/><path d="M39.2 167.9c29.1-12.8 39.4-33.3 56.6-39 17.1-5.7 31.7 22.8 38.5 33.4 4.5-12.4 9.3-25.1 17.9-35 8.7-9.9 22.6-16.4 35.3-12.9 8.2 2.3 14.8 8.3 21 14.2 11.8 11.1 26.7 24.5 40.4 33.1M124.6 54.5c5.2-3.4 15.5-5.3 26.7 6.9S153.1 95 130 90.5c-19.5-3.8-20.2-26.3-5.4-36z" class="st0"/><path d="M222.6 171.5c-8.2-6.2-14.6-21.1-13.5-35.5 1-12.3 12.6-28.7 24.7-32.3 7.6-2.3 16.5-4.1 24.4-3.6 12 .7 19.5 7.6 25.2 17.8 8.7 15.7 9.2 34.5-3.1 48.6-8.5 9.6-17.6 12.9-30.3 14.3-6.1.6-19.1-3-27.4-9.3zM278.4 170.1c13.1 13.8 26.5 27.3 40.1 40.5M223.7 133.1c2.3-7.4 7.6-13.6 14.6-17M248.7 113.1l2.8-1M275.8 73.9l7.7-18M305.5 92.3l14.8-9.9M316.2 127.1l12.6-.1" class="st2"/></svg>