<svg xmlns="http://www.w3.org/2000/svg" id="svg8" x="0" y="0" version="1.1" viewBox="0 0 160 196.7" xml:space="preserve"><style>.st0{fill:#ff2116}.st2{fill:#2c2c2c}</style><g id="layer1" transform="translate(36.076 -93.732)"><g id="g899" transform="matrix(1.4843 0 0 1.4843 17.472 -90.244)"><g id="g876"><path id="path890" d="M-22.4 123.9c-7.5 0-13.7 6.1-13.7 13.7v105.1c0 7.5 6.1 13.7 13.7 13.7H58c7.5 0 13.7-6.1 13.7-13.7v-86.5s.2-2.5-.9-5c-1-2.3-2.7-3.9-2.7-3.9l-19.9-19.6s-1.7-1.6-4.2-2.7c-3-1.3-6-1.1-6-1.1h-60.4z" class="st0"/><path id="rect2684" fill="#f5f5f5" d="M-22.4 128.4h60.3s2.4 0 4.2.8c1.7.7 2.9 1.8 2.9 1.8l19.9 19.5s1.2 1.3 1.8 2.6c.5 1.1.5 3 .5 3V242.8c0 5.1-4.1 9.2-9.2 9.2h-80.4c-5.1 0-9.2-4.1-9.2-9.2V137.6c0-5.1 4.1-9.2 9.2-9.2z"/><path id="path2697" d="M-9.2 202.9c-3.1-3.1.3-7.3 9.3-11.9l5.7-2.8 2.2-4.9c1.2-2.7 3.1-7.1 4.1-9.7l1.8-4.8-1.3-3.6c-1.6-4.4-2.1-11-1.1-13.4 1.3-3.2 5.7-2.9 7.4.6 1.4 2.7 1.2 7.6-.4 13.8l-1.3 5.1 1.2 2c.6 1.1 2.5 3.7 4.1 5.7l3.1 3.8 3.8-.5c12.2-1.6 16.3 1.1 16.3 5 0 4.9-9.6 5.3-17.6-.3-1.8-1.3-3-2.5-3-2.5s-5 1-7.5 1.7c-2.6.7-3.8 1.1-7.6 2.4 0 0-1.3 1.9-2.2 3.3-3.2 5.2-6.9 9.4-9.6 11-2.7 1.4-5.8 1.5-7.4 0zm4.9-1.8c1.7-1.1 5.3-5.2 7.7-9.1l1-1.6-4.5 2.3c-6.9 3.5-10.1 6.8-8.5 8.8.9 1.1 2.1 1 4.3-.4zm45.1-12.6c1.7-1.2 1.5-3.6-.5-4.6-1.5-.8-2.7-.9-6.6-.9-2.4.2-6.2.6-6.9.8 0 0 2.1 1.5 3 2 1.2.7 4.3 2 6.5 2.7 2.2.7 3.5.7 4.5 0zm-18.2-7.6c-1-1.1-2.8-3.3-3.9-5-1.5-1.9-2.2-3.2-2.2-3.2s-1.1 3.4-1.9 5.5l-2.7 6.7-.8 1.5s4.2-1.4 6.3-1.9c2.3-.6 6.8-1.5 6.8-1.5l-1.6-2.1zm-5.8-23.4c.3-2.2.4-4.4-.3-5.5-2-2.1-4.3-.4-3.9 4.7.1 1.7.6 4.7 1.1 6.5l1 3.3.7-2.5c.4-1.3 1-4.3 1.4-6.5z" class="st0"/><g id="g858"><path id="path845" d="M-3.9 217.2h5c1.6 0 2.9.2 3.9.5s1.8 1 2.5 2 1 2.3 1 3.7c0 1.3-.3 2.5-.8 3.4-.6 1-1.3 1.7-2.2 2.1-.9.4-2.4.6-4.3.6H-.5v7.9h-3.4v-20.2zm3.4 2.6v7.1h1.7c1.5 0 2.5-.3 3.1-.8.6-.6.9-1.5.9-2.7 0-.9-.2-1.7-.6-2.3-.4-.6-.8-.9-1.2-1.1-.4-.1-1.2-.2-2.1-.2H-.5z" class="st2"/><path id="path847" d="M11.2 217.2h4.6c2.2 0 4 .4 5.3 1.2 1.3.8 2.3 1.9 3 3.5.7 1.5 1 3.3 1 5.1 0 2-.3 3.8-.9 5.3-.6 1.5-1.5 2.8-2.8 3.7-1.2 1-3 1.4-5.4 1.4h-4.8v-20.2zm3.3 2.7v14.9h1.4c2 0 3.4-.7 4.3-2 .9-1.4 1.3-3.2 1.3-5.4 0-5-1.9-7.5-5.6-7.5h-1.4z" class="st2"/><path id="path849" d="M28.3 217.2h11.3v2.7h-7.9v6.1H38v2.7h-6.3v8.8h-3.4v-20.3z" class="st2"/></g></g></g></g></svg>