<svg xmlns="http://www.w3.org/2000/svg" viewBox="0 0 160 160"><path fill="#97a4af" d="M142.2 35.6V17.8c0-9.8-8-17.8-17.8-17.8H35.6c-9.8 0-17.8 8-17.8 17.8v17.8C8 35.6 0 43.5 0 53.3v48.9c0 2.5 2 4.4 4.4 4.4h13.3v35.6c0 9.8 8 17.8 17.8 17.8h88.9c9.8 0 17.8-8 17.8-17.8v-35.6h13.3c2.5 0 4.4-2 4.4-4.4V53.3c.1-9.8-7.9-17.7-17.7-17.7zM35.6 17.8h88.9v17.8H35.6V17.8zm88.8 124.4H35.6V88.9h88.9v53.3zm17.8-75.5c0 2.5-2 4.4-4.4 4.4h-8.9c-2.5 0-4.4-2-4.4-4.4v-8.9c0-2.5 2-4.4 4.4-4.4h8.9c2.5 0 4.4 2 4.4 4.4v8.9z"/></svg>